<svg width="24" height="24" viewBox="0 0 24 24" fill="none" xmlns="http://www.w3.org/2000/svg">
<path d="M0.931328 17.741H21.7864V20.8294H0.931328V17.741Z" fill="#BC78FF"/>
<g clip-path="url(#clip0_402_17544)">
<path d="M22.2849 17.7409H1V18.7359H22.2849V17.7409Z" fill="black"/>
<path d="M21.3854 15.8146C20.9874 15.5679 20.5815 15.3211 20.1596 14.8196L20.0561 14.6604C19.9606 14.5171 19.8332 14.3102 19.682 14.0555C19.2044 13.2754 18.4721 12.1053 17.6204 10.8794L17.4691 10.6645C15.2483 7.53627 13.4971 6 12.1121 6H1V6.99499H12.1121C12.6613 6.99499 13.911 7.49647 16.2353 10.6645H12.4464C11.4275 10.6645 10.5997 11.4924 10.5997 12.5033V13.5779C10.5997 14.5967 11.4275 15.4246 12.4464 15.4246H19.3715C19.3715 15.4246 19.3954 15.4564 19.4034 15.4644C19.9208 16.0773 20.4382 16.4036 20.8601 16.6584C21.4969 17.0484 21.7914 17.2315 21.7914 18.2424C21.7914 20.2563 21.7914 20.3279 20.0641 20.3279H1V21.3229H20.0641C22.6749 21.3229 22.7864 20.3757 22.7864 18.1787C22.7864 16.6822 22.0779 16.2365 21.3854 15.8146ZM11.6026 13.5779V12.5033C11.6026 12.0336 11.9847 11.6595 12.4544 11.6595H16.9517C17.0711 11.8346 17.1905 12.0098 17.302 12.1769C17.3497 12.2406 17.3895 12.3122 17.4373 12.3759C17.8114 12.9411 18.1457 13.4744 18.4323 13.9281C18.4402 13.944 18.4482 13.952 18.4562 13.9679C18.5596 14.1351 18.6552 14.2863 18.7427 14.4296H12.4544C11.9847 14.4296 11.6026 14.0475 11.6026 13.5779Z" fill="black"/>
<path d="M9.1271 13.578V12.5034C9.1271 11.4845 8.29927 10.6646 7.28835 10.6646H1V11.6596H7.28039C7.75003 11.6596 8.12415 12.0417 8.12415 12.5034V13.578C8.12415 14.0476 7.74207 14.4297 7.28039 14.4297H1V15.4247H7.28039C8.29927 15.4247 9.11914 14.5968 9.11914 13.578H9.1271Z" fill="black"/>
</g>
<g clip-path="url(#clip1_402_17544)">
<path d="M8.45463 9.19665L9.82123 6.79186L7.20634 6.44541L11.1212 2.88624L11.6404 2.89202L10.2577 5.29984L12.8823 5.6432L8.9674 9.20236L8.45463 9.19665Z" fill="#EF2D2D"/>
</g>
<defs>
<clipPath id="clip0_402_17544">
<rect width="21.7864" height="15.3229" fill="white" transform="translate(1 6)"/>
</clipPath>
<clipPath id="clip1_402_17544">
<rect width="8" height="8" fill="white" transform="translate(6.08911 2) rotate(0.638117)"/>
</clipPath>
</defs>
</svg>
